<?xml version="1.0" encoding="UTF-8" standalone="no"?>
<svg width="98px" height="92px" viewBox="0 0 98 92" version="1.1" xmlns="http://www.w3.org/2000/svg" xmlns:xlink="http://www.w3.org/1999/xlink" xmlns:sketch="http://www.bohemiancoding.com/sketch/ns">
    <!-- Generator: Sketch 3.4.3 (16044) - http://www.bohemiancoding.com/sketch -->
    <title>icon_accessible</title>
    <desc>Created with Sketch.</desc>
    <defs>
        <linearGradient x1="8.98232292%" y1="22.4745086%" x2="55.800063%" y2="63.2242015%" id="linearGradient-1">
            <stop stop-color="#000000" offset="0%"></stop>
            <stop stop-color="#000000" stop-opacity="0" offset="100%"></stop>
        </linearGradient>
    </defs>
    <g id="icons" stroke="none" stroke-width="1" fill="none" fill-rule="evenodd" sketch:type="MSPage">
        <g sketch:type="MSArtboardGroup" transform="translate(-355.000000, -419.000000)" id="icon_accessible">
            <g sketch:type="MSLayerGroup" transform="translate(300.000000, 419.000000)">
                <rect id="background-padding" fill-opacity="0" fill="#D8D8D8" sketch:type="MSShapeGroup" x="0" y="0" width="200" height="145"></rect>
                <path d="M91,60.5 L140.200012,107 L171.200012,76 L123.050018,28 C123.050018,28 91.0200184,60.051 91,60.5 L91,60.5 Z" id="shadow" opacity="0.12" fill="url(#linearGradient-1)" sketch:type="MSShapeGroup"></path>
                <path d="M100.043628,0 C106.140281,0 111.901985,1.1559375 117.328738,3.470625 C122.752677,5.7825 127.501086,8.9465625 131.576781,12.9628125 C135.64966,16.97625 138.892202,21.67875 141.295961,27.0703125 C143.69972,32.4590625 144.929747,38.233125 144.99167,44.3840625 C145.107073,50.5940625 144.023411,56.4525 141.73787,61.9621875 C139.449514,67.4690625 136.297043,72.2728125 132.280457,76.37625 C128.261057,80.476875 123.529536,83.7421875 118.074635,86.1778125 C112.62255,88.605 106.787664,89.8790625 100.572793,90 L100.30821,90 L100.043628,90 C93.8878656,90 88.0952004,88.84125 82.6712617,86.529375 C77.2445083,84.211875 72.496099,81.0478125 68.4232193,77.0371875 C64.3475248,73.0209375 61.1049833,68.3184375 58.704039,62.9296875 C56.2974652,57.538125 55.0674387,51.766875 55.0083298,45.6159375 C54.8929269,39.403125 55.9765887,33.5446875 58.2621301,28.0378125 C60.5504862,22.528125 63.7001424,17.7103125 67.7195427,13.57875 C71.7361284,9.4471875 76.4704641,6.165 81.9253646,3.735 C87.3774503,1.3021875 93.2095215,0.05625 99.4272073,0 L99.6917897,0 L100.043628,0 L100.043628,0 L100.043628,0 Z M100.04774,3.2734375 L99.7254756,3.2734375 L99.4948642,3.2734375 C96.6595264,3.33251714 93.8862762,3.65745519 91.1780703,4.24234366 C88.4669079,4.82427815 85.8207897,5.67207104 83.2338026,6.77981436 C80.7680344,7.82552406 78.4441808,9.11641428 76.2563289,10.658393 C74.068477,12.1944637 72.0225398,13.9491291 70.1126042,15.9194353 C68.2026686,17.8277078 66.5085616,19.9043572 65.0302833,22.1523377 C63.552005,24.3944102 62.3191208,26.7812278 61.3345875,29.3039286 C60.2879664,31.888663 59.5015223,34.535431 58.9811684,37.2442327 C58.4549013,39.9500804 58.2242899,42.7179617 58.2863776,45.5508306 C58.2863776,48.3216659 58.5790767,51.0600074 59.1644749,53.7688091 C59.7469165,56.4746568 60.5954483,59.088931 61.7041571,61.6145858 C62.7507781,64.075253 64.0309671,66.397083 65.538811,68.5830298 C67.0466549,70.7689766 68.7555447,72.8131323 70.6684368,74.7214048 C72.5754159,76.5676437 74.6390924,78.2307356 76.8565099,79.7077267 C79.0739274,81.1847178 81.4125637,82.4460682 83.878332,83.4917779 C86.465319,84.5374876 89.099611,85.3380168 91.7782513,85.8933655 C94.4598482,86.4457601 97.2124025,86.7234344 100.04774,86.7234344 L100.278352,86.7234344 L100.603573,86.7234344 C103.373866,86.6584468 106.114594,86.3364628 108.825757,85.7545283 C111.533963,85.1696398 114.183038,84.3218469 116.770025,83.2141036 C119.232836,82.1063603 121.574429,80.7977462 123.791847,79.2912153 C126.009264,77.7846843 128.043375,76.0447888 129.891223,74.0774367 C131.798202,72.1071306 133.495266,70.0157112 134.973544,67.8002245 C136.451822,65.5847379 137.68175,63.2126902 138.66924,60.6899894 C139.712904,58.105255 140.499348,55.4584869 141.025615,52.7526392 C141.545969,50.0438376 141.776581,47.2730023 141.71745,44.4430873 C141.71745,41.6102184 141.421794,38.860061 140.839352,36.1837531 C140.253954,33.5044913 139.408379,30.9020329 138.29967,28.3822861 C137.250093,25.918665 135.969904,23.596835 134.465016,21.4138421 C132.954216,19.2249413 131.245326,17.1807857 129.33539,15.2725132 C127.425455,13.4262743 125.364735,11.7661363 123.147317,10.2891452 C120.9299,8.81215411 118.588307,7.54784973 116.125495,6.50509402 C113.538508,5.45643034 110.904216,4.65885515 108.225576,4.1035065 C105.546936,3.55111183 102.82099,3.2734375 100.04774,3.2734375 L100.04774,3.2734375 L100.04774,3.2734375 Z M125.720225,30.8671875 L122.850004,28 L93.4729163,57.44125 L78.8702209,43.7303125 L76,46.6875 L93.5601722,63.0884375 L125.720225,30.8671875 L125.720225,30.8671875 Z" id="Icon/Seek-icons/Circle---tick" fill="#FFFFFF" sketch:type="MSShapeGroup"></path>
            </g>
        </g>
    </g>
</svg>