<?xml version="1.0" encoding="UTF-8" standalone="no"?>
<svg width="98px" height="92px" viewBox="0 0 98 92" version="1.1" xmlns="http://www.w3.org/2000/svg" xmlns:xlink="http://www.w3.org/1999/xlink" xmlns:sketch="http://www.bohemiancoding.com/sketch/ns">
    <!-- Generator: Sketch 3.4.3 (16044) - http://www.bohemiancoding.com/sketch -->
    <title>icon_accessible</title>
    <desc>Created with Sketch.</desc>
    <defs>
        <linearGradient x1="7.72673931%" y1="22.4745086%" x2="55.9776075%" y2="63.2242015%" id="linearGradient-1">
            <stop stop-color="#000000" offset="0%"></stop>
            <stop stop-color="#000000" stop-opacity="0" offset="100%"></stop>
        </linearGradient>
    </defs>
    <g id="Welcome" stroke="none" stroke-width="1" fill="none" fill-rule="evenodd" sketch:type="MSPage">
        <g id="v3" sketch:type="MSArtboardGroup" transform="translate(-345.000000, -962.000000)">
            <g id="Features" sketch:type="MSLayerGroup" transform="translate(0.000000, 720.000000)">
                <g id="feature-1" transform="translate(260.000000, 242.000000)" sketch:type="MSShapeGroup">
                    <g id="icon_accessible" transform="translate(85.000000, 0.000000)">
                        <path d="M35.7999878,60.5 L85,107 L116,76 L67.8500061,28 C67.8500061,28 35.8200062,60.051 35.7999878,60.5 Z" id="Shape" opacity="0.12" fill="url(#linearGradient-1)"></path>
                        <path d="M45.0436279,0 C51.1402814,0 56.9019849,1.1559375 62.3287383,3.470625 C67.752677,5.7825 72.5010863,8.9465625 76.5767807,12.9628125 C80.6496605,16.97625 83.892202,21.67875 86.295961,27.0703125 C88.6997201,32.4590625 89.9297466,38.233125 89.9916702,44.3840625 C90.1070731,50.5940625 89.0234113,56.4525 86.7378699,61.9621875 C84.4495138,67.4690625 81.2970429,72.2728125 77.2804573,76.37625 C73.2610569,80.476875 68.5295359,83.7421875 63.0746354,86.1778125 C57.6225497,88.605 51.7876638,89.8790625 45.5727927,90 L45.3082103,90 L45.0436279,90 C38.8878656,90 33.0952004,88.84125 27.6712617,86.529375 C22.2445083,84.211875 17.496099,81.0478125 13.4232193,77.0371875 C9.34752478,73.0209375 6.10498331,68.3184375 3.70403898,62.9296875 C1.29746524,57.538125 0.0674386578,51.766875 0.00832982898,45.6159375 C-0.107073122,39.403125 0.976588738,33.5446875 3.26213012,28.0378125 C5.5504862,22.528125 8.70014237,17.7103125 12.7195427,13.57875 C16.7361284,9.4471875 21.4704641,6.165 26.9253646,3.735 C32.3774503,1.3021875 38.2095215,0.05625 44.4272073,0 L44.6917897,0 L45.0436279,0 L45.0436279,0 Z M45.0477403,3.2734375 L44.7254756,3.2734375 L44.4948642,3.2734375 C41.6595264,3.33251714 38.8862762,3.65745519 36.1780703,4.24234366 C33.4669079,4.82427815 30.8207897,5.67207104 28.2338026,6.77981436 C25.7680344,7.82552406 23.4441808,9.11641428 21.2563289,10.658393 C19.068477,12.1944637 17.0225398,13.9491291 15.1126042,15.9194353 C13.2026686,17.8277078 11.5085616,19.9043572 10.0302833,22.1523377 C8.55200497,24.3944102 7.31912084,26.7812278 6.33458748,29.3039286 C5.28796642,31.888663 4.50152235,34.535431 3.98116838,37.2442327 C3.4549013,39.9500804 3.22428988,42.7179617 3.28637757,45.5508306 C3.28637757,48.3216659 3.57907668,51.0600074 4.16447489,53.7688091 C4.74691655,56.4746568 5.59544831,59.088931 6.70415706,61.6145858 C7.75077811,64.075253 9.03096715,66.397083 10.538811,68.5830298 C12.0466549,70.7689766 13.7555447,72.8131323 15.6684368,74.7214048 C17.5754159,76.5676437 19.6390924,78.2307356 21.8565099,79.7077267 C24.0739274,81.1847178 26.4125637,82.4460682 28.878332,83.4917779 C31.465319,84.5374876 34.099611,85.3380168 36.7782513,85.8933655 C39.4598482,86.4457601 42.2124025,86.7234344 45.0477403,86.7234344 L45.2783517,86.7234344 L45.6035729,86.7234344 C48.3738665,86.6584468 51.1145945,86.3364628 53.825757,85.7545283 C56.5339629,85.1696398 59.1830377,84.3218469 61.7700247,83.2141036 C64.2328364,82.1063603 66.5744293,80.7977462 68.7918468,79.2912153 C71.0092643,77.7846843 73.0433752,76.0447888 74.8912232,74.0774367 C76.7982022,72.1071306 78.4952657,70.0157112 79.973544,67.8002245 C81.4518224,65.5847379 82.6817499,63.2126902 83.6692399,60.6899894 C84.7129044,58.105255 85.4993484,55.4584869 86.0256155,52.7526392 C86.5459695,50.0438376 86.7765809,47.2730023 86.7174498,44.4430873 C86.7174498,41.6102184 86.4217941,38.860061 85.8393524,36.1837531 C85.2539542,33.5044913 84.408379,30.9020329 83.2996703,28.3822861 C82.2500927,25.918665 80.9699036,23.596835 79.4650163,21.4138421 C77.9542158,19.2249413 76.2453261,17.1807857 74.3353905,15.2725132 C72.4254549,13.4262743 70.3647349,11.7661363 68.1473174,10.2891452 C65.9298999,8.81215411 63.5883071,7.54784973 61.1254954,6.50509402 C58.5385083,5.45643034 55.9042163,4.65885515 53.225576,4.1035065 C50.5469357,3.55111183 47.8209904,3.2734375 45.0477403,3.2734375 L45.0477403,3.2734375 Z M70.7202252,30.8671875 L67.8500042,28 L38.4729163,57.44125 L23.8702209,43.7303125 L21,46.6875 L38.5601722,63.0884375 L70.7202252,30.8671875 Z" id="Icon/Seek-icons/Circle---tick" fill="#FFFFFF"></path>
                    </g>
                </g>
            </g>
        </g>
    </g>
</svg>