<?xml version="1.0" encoding="UTF-8" standalone="no"?>
<svg width="108px" height="116px" viewBox="0 0 108 116" version="1.1" xmlns="http://www.w3.org/2000/svg" xmlns:xlink="http://www.w3.org/1999/xlink" xmlns:sketch="http://www.bohemiancoding.com/sketch/ns">
    <!-- Generator: Sketch 3.4.3 (16044) - http://www.bohemiancoding.com/sketch -->
    <title>icon_customisable copy</title>
    <desc>Created with Sketch.</desc>
    <defs>
        <linearGradient x1="-20.0229943%" y1="23.5002149%" x2="66.6460222%" y2="78.3019983%" id="linearGradient-1">
            <stop stop-color="#000000" offset="0%"></stop>
            <stop stop-color="#000000" stop-opacity="0" offset="100%"></stop>
        </linearGradient>
    </defs>
    <g id="Welcome" stroke="none" stroke-width="1" fill="none" fill-rule="evenodd" sketch:type="MSPage">
        <g id="v3" sketch:type="MSArtboardGroup" transform="translate(-1010.000000, -959.000000)">
            <g id="Features" sketch:type="MSLayerGroup" transform="translate(0.000000, 720.000000)">
                <g id="feature-3" transform="translate(920.000000, 239.000000)" sketch:type="MSShapeGroup">
                    <g id="icon_customisable-copy" transform="translate(90.000000, 0.000000)">
                        <path d="M76,87.5 L58.0581564,64 C58.0617088,64.005244 47.4156983,64.1955307 47.4156983,64.1955307 L56.9999998,66 L56.9999998,73 C56.9999998,73 51.5050838,75.3072626 49.6503352,75.3072626 L32,75.3072626 L76,132 L76,87.5 Z" id="Shape" opacity="0.1" fill="url(#linearGradient-1)"></path>
                        <path d="M107.700012,62.7999878 L89.7581686,39.2999878 C89.761721,39.3052318 79.1157105,39.4955185 79.1157105,39.4955185 L88.700012,41.2999878 L88.700012,48.2999878 C88.700012,48.2999878 83.205096,50.6072504 81.3503474,50.6072504 L63.7000122,50.6072504 L107.700012,107.299988 L107.700012,62.7999878 Z" id="Shape-Copy-2" opacity="0.1" fill="url(#linearGradient-1)"></path>
                        <path d="M44,38.5 L26.0581564,15 C26.0617088,15.005244 15.4156983,15.1955307 15.4156983,15.1955307 L24.9999998,17 L24.9999998,24 C24.9999998,24 19.5050838,26.3072626 17.6503352,26.3072626 L0,26.3072626 L44,83 L44,38.5 Z" id="Shape" opacity="0.1" fill="url(#linearGradient-1)"></path>
                        <path d="M23.5,17.75 L23.5,23.5 L2.75,23.5 L2.75,17.75 L23.5,17.75 L23.5,17.75 Z M22.5,15 L3.75,15 L0,15 L0,18.75 L0,22.5 L0,26.25 L3.75,26.25 L22.5,26.25 L26.25,26.25 L26.25,22.5 L26.25,18.75 L26.25,15 L22.5,15 Z M55.375,66.5 L55.375,72.25 L34.625,72.25 L34.625,66.5 L55.375,66.5 L55.375,66.5 Z M54.375,63.75 L35.625,63.75 L31.875,63.75 L31.875,67.5 L31.875,71.25 L31.875,75 L35.625,75 L54.375,75 L58.125,75 L58.125,71.25 L58.125,67.5 L58.125,63.75 L54.375,63.75 Z M87.25,42.125 L87.25,47.875 L66.5,47.875 L66.5,42.125 L87.25,42.125 L87.25,42.125 Z M90,39.375 L86.25,39.375 L67.5,39.375 L63.75,39.375 L63.75,43.125 L63.75,46.875 L63.75,50.625 L67.5,50.625 L86.25,50.625 L90,50.625 L90,46.875 L90,43.125 L90,39.375 L90,39.375 L90,39.375 Z M12.25,90 L15.25,90 L15.25,26.25 L12.25,26.25 L12.25,90 L12.25,90 Z M12.25,0 L12.25,15 L15.25,15 L15.25,0 L12.25,0 L12.25,0 Z M44.125,90 L47.125,90 L47.125,75 L44.125,75 L44.125,90 L44.125,90 Z M44.125,0 L44.125,63.75 L47.125,63.75 L47.125,0 L44.125,0 L44.125,0 Z M76,89.9999771 L79,89.9999771 L79,50.5999756 L76,50.5999756 L76,89.9999771 L76,89.9999771 Z M76,0 L76,39.4000015 L79,39.4000015 L79,0 L76,0 L76,0 Z" id="Shape" fill="#FFFFFF"></path>
                    </g>
                </g>
            </g>
        </g>
    </g>
</svg>