<?xml version="1.0" encoding="UTF-8" standalone="no"?>
<svg width="108px" height="116px" viewBox="0 0 108 116" version="1.1" xmlns="http://www.w3.org/2000/svg" xmlns:xlink="http://www.w3.org/1999/xlink" xmlns:sketch="http://www.bohemiancoding.com/sketch/ns">
    <!-- Generator: Sketch 3.4.3 (16044) - http://www.bohemiancoding.com/sketch -->
    <title>icon_customisable copy</title>
    <desc>Created with Sketch.</desc>
    <defs>
        <linearGradient x1="-20.0229943%" y1="23.5002149%" x2="66.6460222%" y2="78.3019983%" id="linearGradient-1">
            <stop stop-color="#000000" offset="0%"></stop>
            <stop stop-color="#000000" stop-opacity="0" offset="100%"></stop>
        </linearGradient>
    </defs>
    <g id="icons" stroke="none" stroke-width="1" fill="none" fill-rule="evenodd" sketch:type="MSPage">
        <g sketch:type="MSArtboardGroup" transform="translate(-605.000000, -419.000000)" id="icon_customisable-copy">
            <g sketch:type="MSLayerGroup" transform="translate(550.000000, 419.000000)">
                <rect id="background-padding" fill-opacity="0" fill="#D8D8D8" sketch:type="MSShapeGroup" x="0" y="0" width="200" height="146"></rect>
                <path d="M131,87.5 L113.058156,64 C113.061709,64.005244 102.415698,64.1955307 102.415698,64.1955307 L112,66 L112,73 C112,73 106.505084,75.3072626 104.650335,75.3072626 L87,75.3072626 L131,132 L131,87.5 Z" id="Shape" opacity="0.1" fill="url(#linearGradient-1)" sketch:type="MSShapeGroup"></path>
                <path d="M162.700012,62.7999878 L144.758169,39.2999878 C144.761721,39.3052318 134.115711,39.4955185 134.115711,39.4955185 L143.700012,41.2999878 L143.700012,48.2999878 C143.700012,48.2999878 138.205096,50.6072504 136.350347,50.6072504 L118.700012,50.6072504 L162.700012,107.299988 L162.700012,62.7999878 Z" id="Shape-Copy-2" opacity="0.1" fill="url(#linearGradient-1)" sketch:type="MSShapeGroup"></path>
                <path d="M99,38.5 L81.0581564,15 C81.0617088,15.005244 70.4156983,15.1955307 70.4156983,15.1955307 L79.9999998,17 L79.9999998,24 C79.9999998,24 74.5050838,26.3072626 72.6503352,26.3072626 L55,26.3072626 L99,83 L99,38.5 Z" id="Shape" opacity="0.1" fill="url(#linearGradient-1)" sketch:type="MSShapeGroup"></path>
                <path d="M78.5,17.75 L78.5,23.5 L57.75,23.5 L57.75,17.75 L78.5,17.75 L78.5,17.75 Z M77.5,15 L58.75,15 L55,15 L55,18.75 L55,22.5 L55,26.25 L58.75,26.25 L77.5,26.25 L81.25,26.25 L81.25,22.5 L81.25,18.75 L81.25,15 L77.5,15 Z M110.375,66.5 L110.375,72.25 L89.625,72.25 L89.625,66.5 L110.375,66.5 L110.375,66.5 Z M109.375,63.75 L90.625,63.75 L86.875,63.75 L86.875,67.5 L86.875,71.25 L86.875,75 L90.625,75 L109.375,75 L113.125,75 L113.125,71.25 L113.125,67.5 L113.125,63.75 L109.375,63.75 Z M142.25,42.125 L142.25,47.875 L121.5,47.875 L121.5,42.125 L142.25,42.125 L142.25,42.125 Z M145,39.375 L141.25,39.375 L122.5,39.375 L118.75,39.375 L118.75,43.125 L118.75,46.875 L118.75,50.625 L122.5,50.625 L141.25,50.625 L145,50.625 L145,46.875 L145,43.125 L145,39.375 L145,39.375 L145,39.375 Z M67.25,90 L70.25,90 L70.25,26.25 L67.25,26.25 L67.25,90 L67.25,90 Z M67.25,0 L67.25,15 L70.25,15 L70.25,0 L67.25,0 L67.25,0 Z M99.125,90 L102.125,90 L102.125,75 L99.125,75 L99.125,90 L99.125,90 Z M99.125,0 L99.125,63.75 L102.125,63.75 L102.125,0 L99.125,0 L99.125,0 Z M131,89.9999771 L134,89.9999771 L134,50.5999756 L131,50.5999756 L131,89.9999771 L131,89.9999771 Z M131,0 L131,39.4000015 L134,39.4000015 L134,0 L131,0 L131,0 Z" id="Shape" fill="#FFFFFF" sketch:type="MSShapeGroup"></path>
            </g>
        </g>
    </g>
</svg>