<?xml version="1.0" encoding="UTF-8" standalone="no"?>
<svg width="113px" height="127px" viewBox="0 0 113 127" version="1.1" xmlns="http://www.w3.org/2000/svg" xmlns:xlink="http://www.w3.org/1999/xlink" xmlns:sketch="http://www.bohemiancoding.com/sketch/ns">
    <!-- Generator: Sketch 3.4.3 (16044) - http://www.bohemiancoding.com/sketch -->
    <title>icon_mobile-friendly</title>
    <desc>Created with Sketch.</desc>
    <defs>
        <linearGradient x1="20.017619%" y1="25.714%" x2="61.6842857%" y2="64.1088148%" id="linearGradient-1">
            <stop stop-color="#000000" offset="0%"></stop>
            <stop stop-color="#000000" stop-opacity="0" offset="100%"></stop>
        </linearGradient>
    </defs>
    <g id="Welcome" stroke="none" stroke-width="1" fill="none" fill-rule="evenodd" sketch:type="MSPage">
        <g id="v3" sketch:type="MSArtboardGroup" transform="translate(-692.000000, -960.000000)">
            <g id="Features" sketch:type="MSLayerGroup" transform="translate(0.000000, 720.000000)">
                <g id="feature-2" transform="translate(590.000000, 240.000000)" sketch:type="MSShapeGroup">
                    <g id="icon_mobile-friendly" transform="translate(102.000000, 0.000000)">
                        <path d="M123,70.2592 L53.458,1 L0,67.1945778 L0,86.2744889 L58.9688571,146 L123,70.2592 Z" id="Shape" opacity="0.1" fill="url(#linearGradient-1)"></path>
                        <rect id="Rectangle-63" fill="#33BFF5" x="3" y="3" width="50" height="85"></rect>
                        <path d="M36.606,5.613 L19.494,5.613 C18.713,5.613 18.079,6.247 18.079,7.027 C18.079,7.807 18.713,8.441 19.494,8.441 L36.606,8.441 C37.387,8.441 38.021,7.807 38.021,7.027 C38.021,6.247 37.387,5.613 36.606,5.613 L36.606,5.613 Z M6.257,90 C2.807,90 0,87.193 0,83.743 L0,6.257 C0,2.807 2.807,0 6.257,0 L49.844,0 C53.294,0 56.101,2.807 56.101,6.257 L56.101,83.743 C56.101,87.194 53.294,90 49.844,90 L6.257,90 Z M2.828,11.139 L53.273,11.139 L53.273,6.257 C53.273,4.366 51.735,2.828 49.844,2.828 L6.257,2.828 C4.366,2.828 2.828,4.366 2.828,6.257 L2.828,11.139 L2.828,11.139 Z M2.828,69.576 L53.273,69.576 L53.273,13.967 L2.828,13.967 L2.828,69.576 L2.828,69.576 Z M6.257,87.172 L49.844,87.172 C51.735,87.172 53.273,85.634 53.273,83.743 L53.273,72.404 L2.828,72.404 L2.828,83.743 C2.828,85.635 4.366,87.172 6.257,87.172 L6.257,87.172 Z M32.855,79.203 C32.855,81.852 30.7,84.007 28.051,84.007 C25.402,84.007 23.247,81.852 23.247,79.203 C23.247,76.554 25.402,74.399 28.051,74.399 C30.7,74.399 32.855,76.554 32.855,79.203 L32.855,79.203 Z M30.026,79.203 C30.026,78.113 29.14,77.227 28.05,77.227 C26.96,77.227 26.074,78.113 26.074,79.203 C26.074,80.292 26.96,81.179 28.05,81.179 C29.14,81.179 30.026,80.292 30.026,79.203 L30.026,79.203 Z" id="Shape" fill="#FFFFFF"></path>
                    </g>
                </g>
            </g>
        </g>
    </g>
</svg>