<?xml version="1.0" encoding="UTF-8" standalone="no"?>
<svg width="199px" height="176px" viewBox="0 0 199 176" version="1.1" xmlns="http://www.w3.org/2000/svg" xmlns:xlink="http://www.w3.org/1999/xlink" xmlns:sketch="http://www.bohemiancoding.com/sketch/ns">
    <!-- Generator: Sketch 3.4.3 (16044) - http://www.bohemiancoding.com/sketch -->
    <title>icon_react-logo</title>
    <desc>Created with Sketch.</desc>
    <defs>
        <linearGradient x1="7.72673931%" y1="22.4745086%" x2="55.9776075%" y2="63.2242015%" id="linearGradient-1">
            <stop stop-color="#000000" offset="0%"></stop>
            <stop stop-color="#000000" stop-opacity="0" offset="100%"></stop>
        </linearGradient>
        <linearGradient x1="10.3481493%" y1="24.688389%" x2="55.9776075%" y2="63.2242015%" id="linearGradient-2">
            <stop stop-color="#000000" offset="0%"></stop>
            <stop stop-color="#000000" stop-opacity="0" offset="100%"></stop>
        </linearGradient>
    </defs>
    <g id="Welcome" stroke="none" stroke-width="1" fill="none" fill-rule="evenodd" sketch:type="MSPage">
        <g id="v3" sketch:type="MSArtboardGroup" transform="translate(-608.000000, -137.000000)">
            <g id="Header" sketch:type="MSLayerGroup">
                <g id="icon_react-logo" transform="translate(611.000000, 140.000000)" sketch:type="MSShapeGroup">
                    <path d="M96.7035678,48.5883575 C120.720144,48.5883575 143.030929,52.0260019 159.853158,57.8029516 C180.121556,64.7632477 192.583391,75.3141304 192.583391,84.8676872 C192.583391,94.8235177 179.375986,106.031696 157.610741,113.225318 C141.155057,118.664017 119.501772,121.502696 96.7035678,121.502696 C73.3295158,121.502696 51.1955858,118.837944 34.5584124,113.165209 C13.5048646,105.986881 0.823744389,94.6332291 0.823744389,84.8676872 C0.823744389,75.3916685 12.7222115,64.9225922 32.7057173,57.9726108 C49.5907012,52.1006946 72.4523738,48.5883575 96.7035678,48.5883575 L96.7035678,48.5883575 Z" id="Shape" stroke="#F7F7F7" stroke-width="6" fill-opacity="0" fill="#000000"></path>
                    <path d="M104.593211,16.8667076 C120.763288,2.82945251 136.151425,-2.66828864 144.447905,2.1042216 C153.093816,7.07769088 156.22942,24.0902067 151.603031,46.4916257 C148.10516,63.4283818 139.753056,83.5577188 128.363759,103.258462 C116.686717,123.456801 103.315293,141.251812 90.0772234,152.794685 C73.3255936,167.401739 57.1309135,172.687495 48.6500911,167.808993 C40.4210015,163.074896 37.2736305,147.563348 41.2214827,126.822953 C44.5571183,109.298615 52.9281196,87.7888845 65.0433763,66.8325922 C77.0413241,46.0793929 91.1725812,28.517352 104.593211,16.8667076 Z" id="Shape" stroke="#F7F7F7" stroke-width="6" fill-opacity="0" fill="#000000"></path>
                    <path d="M41.4293582,44.1775736 C37.3132089,23.1928268 40.2234662,7.14811546 48.5121017,2.36173371 C57.1494547,-2.62631844 73.4910383,3.15987896 90.6363123,18.3459795 C103.599473,29.8273203 116.910638,47.0980596 128.333095,66.7799516 C140.044011,86.9587281 148.821492,107.401775 152.235571,124.607069 C156.556031,146.379291 153.058873,163.014786 144.586251,167.907516 C136.365006,172.655128 121.320951,167.628663 105.279236,153.858523 C91.725252,142.223885 77.2242403,124.247121 65.073684,103.311102 C53.0411497,82.5778212 44.8455768,61.5944972 41.4293582,44.1775736 Z" id="Shape" stroke="#F7F7F7" stroke-width="6" fill-opacity="0" fill="#000000"></path>
                    <g id="Icon/Seek-icons/Search" transform="translate(76.000000, 65.000000)">
                        <path d="M8,32 L53,77 L77,52 L32,7 L33,19 C33,20.66 28.66,29 27,29 L16,32 C15.77,32 8.22,32.051 8,32 Z" id="Shape" opacity="0.12" fill="url(#linearGradient-1)"></path>
                        <path d="M2,22 L21,33 L33.5,17.5 L20,2 L11,5 C11,6.66 6.66,15 5,15 C5,15 6,20 2,22 Z" id="Shape-Copy" opacity="0.12" fill="url(#linearGradient-2)"></path>
                        <path d="M32.6111944,26.4993557 C33.4659807,26.8387798 44,35.1961361 44,35.1961361 L39.4077106,40 L28.7755103,30.8864516 C28.6388969,30.9677419 28.1870218,31.2425806 27.4211986,31.7135484 C26.6540618,32.1832258 26.175915,32.4593548 25.9841308,32.5406452 C24.7532966,33.2116129 23.4318247,33.7225806 22.0236559,34.0722581 C20.6128598,34.4219355 19.1560881,34.596129 17.6507136,34.596129 C15.2153171,34.596129 12.9231019,34.1458065 10.7753817,33.2464516 C8.62634785,32.3445161 6.75842236,31.1083871 5.17160522,29.5367742 C3.58347448,27.963871 2.32505492,26.1290323 1.39503295,24.0322581 C0.463697394,21.9354839 0,19.6903226 0,17.2980645 C0,14.9058065 0.463697394,12.6606452 1.39503295,10.563871 C2.32505492,8.46709677 3.58347448,6.63354839 5.17160522,5.06064516 C6.75842236,3.48774194 8.62634785,2.25032258 10.7753817,1.35096774 C12.9231019,0.450322581 15.2153171,0 17.6507136,0 C20.0585247,0 22.3376039,0.450322581 24.4866378,1.35096774 C26.6330444,2.25032258 28.5009699,3.48774194 30.0891006,5.06064516 C31.6759178,6.63354839 32.9343373,8.46709677 33.8656729,10.563871 C34.7956948,12.6606452 35.2620194,14.9058065 35.2620194,17.2980645 C35.2620194,18.7767742 35.0768032,20.2077419 34.7076843,21.5922581 C34.3385654,22.9754839 33.8105021,24.2864516 33.1274351,25.523871 C33.1053127,25.5643688 32.591954,26.4917156 32.6111944,26.4993557 Z M6.64939436,17.2993552 C6.64939436,18.7829572 6.93651436,20.1811311 7.51075436,21.4967244 C8.08499436,22.8113685 8.86998237,23.953258 9.86765186,24.9223928 C10.8643546,25.8915275 12.0273356,26.6584824 13.3565949,27.2213589 C14.6858541,27.7851846 16.114687,28.0670975 17.6459936,28.0670975 C19.1569989,28.0670975 20.5771311,27.7851846 21.9063904,27.2213589 C23.2356496,26.6584824 24.3986306,25.8915275 25.3953334,24.9223928 C26.3920362,23.953258 27.1779909,22.8113685 27.7522309,21.4967244 C28.3255042,20.1811311 28.6126242,18.7829572 28.6126242,17.2993552 C28.6126242,15.8167024 28.3255042,14.4223253 27.7522309,13.1171732 C27.1779909,11.8120211 26.3920362,10.6701316 25.3953334,9.69150483 C24.3986306,8.71192884 23.2356496,7.94117719 21.9063904,7.37735148 C20.5771311,6.81352576 19.1569989,6.5316129 17.6459936,6.5316129 C16.114687,6.5316129 14.6858541,6.81352576 13.3565949,7.37735148 C12.0273356,7.94117719 10.8643546,8.71192884 9.86765186,9.69150483 C8.86998237,10.6701316 8.08499436,11.8120211 7.51075436,13.1171732 C6.93651436,14.4223253 6.64939436,15.8167024 6.64939436,17.2993552 L6.64939436,17.2993552 Z" fill="#FFFFFF"></path>
                    </g>
                </g>
            </g>
        </g>
    </g>
</svg>
