<?xml version="1.0" encoding="UTF-8" standalone="no"?>
<svg width="196px" height="174px" viewBox="0 0 196 174" version="1.1" xmlns="http://www.w3.org/2000/svg" xmlns:xlink="http://www.w3.org/1999/xlink" xmlns:sketch="http://www.bohemiancoding.com/sketch/ns">
    <!-- Generator: Sketch 3.4.3 (16044) - http://www.bohemiancoding.com/sketch -->
    <title>icon_react-logo</title>
    <desc>Created with Sketch.</desc>
    <defs>
        <linearGradient x1="-38.6399819%" y1="72.3378885%" x2="44.9918262%" y2="50%" id="linearGradient-1">
            <stop stop-color="#000000" stop-opacity="0.1" offset="0%"></stop>
            <stop stop-color="#000000" stop-opacity="0" offset="100%"></stop>
        </linearGradient>
        <linearGradient x1="7.72673931%" y1="22.4745086%" x2="55.9776075%" y2="63.2242015%" id="linearGradient-2">
            <stop stop-color="#000000" offset="0%"></stop>
            <stop stop-color="#000000" stop-opacity="0" offset="100%"></stop>
        </linearGradient>
        <linearGradient x1="10.3481493%" y1="24.688389%" x2="55.9776075%" y2="63.2242015%" id="linearGradient-3">
            <stop stop-color="#000000" offset="0%"></stop>
            <stop stop-color="#000000" stop-opacity="0" offset="100%"></stop>
        </linearGradient>
    </defs>
    <g id="Welcome" stroke="none" stroke-width="1" fill="none" fill-rule="evenodd" sketch:type="MSPage">
        <g id="v3" sketch:type="MSArtboardGroup" transform="translate(-610.000000, -138.000000)">
            <g id="Header" sketch:type="MSLayerGroup">
                <g id="icon_react-logo" transform="translate(611.000000, 140.000000)" sketch:type="MSShapeGroup">
                    <path d="M96.7035678,48.5883575 C120.720144,48.5883575 143.030929,52.0260019 159.853158,57.8029516 C180.121556,64.7632477 192.583391,75.3141304 192.583391,84.8676872 C192.583391,94.8235177 179.375986,106.031696 157.610741,113.225318 C141.155057,118.664017 119.501772,121.502696 96.7035678,121.502696 C73.3295158,121.502696 51.1955858,118.837944 34.5584124,113.165209 C13.5048646,105.986881 0.823744389,94.6332291 0.823744389,84.8676872 C0.823744389,75.3916685 12.7222115,64.9225922 32.7057173,57.9726108 C49.5907012,52.1006946 72.4523738,48.5883575 96.7035678,48.5883575 L96.7035678,48.5883575 Z" id="Shape" stroke="#F7F7F7" stroke-width="3" fill-opacity="0" fill="#000000"></path>
                    <path d="M104.593211,16.8667076 C120.763288,2.82945251 136.151425,-2.66828864 144.447905,2.1042216 C153.093816,7.07769088 156.22942,24.0902067 151.603031,46.4916257 C148.10516,63.4283818 139.753056,83.5577188 128.363759,103.258462 C116.686717,123.456801 103.315293,141.251812 90.0772234,152.794685 C73.3255936,167.401739 57.1309135,172.687495 48.6500911,167.808993 C40.4210015,163.074896 37.2736305,147.563348 41.2214827,126.822953 C44.5571183,109.298615 52.9281196,87.7888845 65.0433763,66.8325922 C77.0413241,46.0793929 91.1725812,28.517352 104.593211,16.8667076 Z" id="Shape" stroke="#F7F7F7" stroke-width="3" fill-opacity="0" fill="#000000"></path>
                    <path d="M41.4293582,44.1775736 C37.3132089,23.1928268 40.2234662,7.14811546 48.5121017,2.36173371 C57.1494547,-2.62631844 73.4910383,3.15987896 90.6363123,18.3459795 C103.599473,29.8273203 116.910638,47.0980596 128.333095,66.7799516 C140.044011,86.9587281 148.821492,107.401775 152.235571,124.607069 C156.556031,146.379291 153.058873,163.014786 144.586251,167.907516 C136.365006,172.655128 121.320951,167.628663 105.279236,153.858523 C91.725252,142.223885 77.2242403,124.247121 65.073684,103.311102 C53.0411497,82.5778212 44.8455768,61.5944972 41.4293582,44.1775736 Z" id="Shape" stroke="#F7F7F7" stroke-width="3" fill-opacity="0" fill="#000000"></path>
                    <g id="magnifying-lens" transform="translate(76.000000, 65.000000)">
                        <g id="icon">
                            <g id="shadows">
                                <rect id="Rectangle-5" fill="url(#linearGradient-1)" transform="translate(47.030330, 44.030330) rotate(-315.000000) translate(-47.030330, -44.030330) " x="42.8305826" y="42.5303301" width="8.39949494" height="3"></rect>
                                <path d="M6,32 L53,77 L77,50 L31,5 L33,19 C33,20.66 29.66,30 28,30 C28,30 24.8292327,32.5426918 23,33 C20.8292327,33.5426918 16,33 16,33 C15.77,33 6.22,32.051 6,32 Z" id="Shape" opacity="0.12" fill="url(#linearGradient-2)"></path>
                                <path d="M0,23 L12,34 L34,10 L22,0 L7,2 L1,12 L0,23 Z" id="Shape-Copy" opacity="0.12" fill="url(#linearGradient-3)"></path>
                            </g>
                            <rect id="Rectangle-4" fill="#FFFFFF" transform="translate(38.131728, 35.131728) rotate(-315.000000) translate(-38.131728, -35.131728) " x="28.131728" y="33.631728" width="20" height="3"></rect>
                            <circle id="Oval-1" stroke="#FFFFFF" stroke-width="3" cx="17" cy="17" r="17"></circle>
                        </g>
                    </g>
                </g>
            </g>
        </g>
    </g>
</svg>