<?xml version="1.0" encoding="UTF-8" standalone="no"?>
<svg width="25px" height="21px" viewBox="0 0 25 21" version="1.1" xmlns="http://www.w3.org/2000/svg" xmlns:xlink="http://www.w3.org/1999/xlink" xmlns:sketch="http://www.bohemiancoding.com/sketch/ns">
    <!-- Generator: Sketch 3.4.3 (16044) - http://www.bohemiancoding.com/sketch -->
    <title>icon_twitter</title>
    <desc>Created with Sketch.</desc>
    <defs></defs>
    <g id="icons" stroke="none" stroke-width="1" fill="none" fill-rule="evenodd" sketch:type="MSPage">
        <g sketch:type="MSArtboardGroup" transform="translate(-219.000000, -594.000000)" id="icon_twitter" fill="#FFFFFF">
            <g sketch:type="MSLayerGroup" transform="translate(219.000000, 594.000000)">
                <path d="M25,2.40552389 C24.3038204,3.44104744 23.4497202,4.32378161 22.4376996,5.05372641 C22.4476911,5.24949393 22.4526868,5.47076132 22.4526868,5.71752859 C22.4526868,7.08861879 22.25279,8.46136746 21.8529965,9.83577461 C21.4532029,11.2101953 20.8425125,12.5257571 20.0209252,13.78246 C19.1993379,15.039163 18.2206763,16.1524926 17.0849404,17.1224489 C15.9492044,18.0924052 14.5839967,18.8657953 12.9893173,19.442619 C11.3946378,20.0194427 9.68557109,20.3078546 7.86211712,20.3078546 C5.01631261,20.3078546 2.3956069,19.5395889 0,18.0030575 C0.425191895,18.0503748 0.832986746,18.0740334 1.22338455,18.0740334 C3.60082271,18.0740334 5.72425725,17.3417532 7.59368816,15.8771928 C6.4851918,15.8568715 5.49245009,15.5156389 4.61546303,14.8534952 C3.73847598,14.1913651 3.13495422,13.3452865 2.80489776,12.3152596 C3.13113635,12.3774016 3.45312383,12.4084726 3.77086021,12.4084726 C4.22821971,12.4084726 4.67825486,12.3488217 5.12096565,12.22952 C3.93799368,11.9925952 2.95661759,11.4033973 2.17683737,10.4619261 C1.39708423,9.5204684 1.00720766,8.43384357 1.00720766,7.20205158 L1.00720766,7.13856929 C1.73332104,7.54061025 2.50783476,7.75446529 3.33074882,7.78013439 C2.62996608,7.31294589 2.0743505,6.70371763 1.66390209,5.95244961 C1.25342661,5.20118159 1.04818887,4.38817775 1.04818887,3.5134381 C1.04818887,2.59088027 1.27936648,1.73180472 1.74172171,0.936211468 C3.0281824,2.51490189 4.58699822,3.77664117 6.41816918,4.72142931 C8.24936721,5.666231 10.2138929,6.19094482 12.3117464,6.29557078 C12.2222701,5.92267833 12.1774507,5.53354638 12.1772882,5.12817493 C12.1772882,3.71277303 12.6781742,2.50422674 13.6799461,1.50253604 C14.6817316,0.500845347 15.8903252,0 17.3057271,0 C18.7876033,0 20.0358041,0.539585926 21.0503293,1.61875778 C22.2094734,1.3891574 23.2948121,0.973868962 24.3063453,0.372892453 C23.916638,1.59935026 23.1657016,2.54547872 22.0535363,3.21127783 C23.0757244,3.08980991 24.0578654,2.82122526 24.9999594,2.40552389 L25,2.40552389 Z" id="twitter-icon" sketch:type="MSShapeGroup"></path>
            </g>
        </g>
    </g>
</svg>